<svg id="Layer_1" data-name="Layer 1" xmlns="http://www.w3.org/2000/svg" viewBox="0 0 156.5 166.08"><title>errorSvg</title><path d="M147.37,123.06l-17.92-9.81-16.4-9-1-.56,5.77-8.5L76.69,72.62,58.06,100.08,53.3,97.47l49.53-73,65.92,36.19L163,69.16l15.27,8.38ZM161,62.29l-56.29-30.9-25,36.92,1.17.64c9.17,5,18.36,10,27.5,15.12s18.49,9.9,27.51,15.29Zm-15.56,53.84,25-36.9L160,73.48l-.65,1Q148.82,90,138.24,105.61c-1.08,1.58-2.26,3.1-3.41,4.67ZM119.73,102l8.38,4.59a2.07,2.07,0,0,0,.61.19,2.81,2.81,0,0,0,3.1-1.46,2.34,2.34,0,0,0-1.1-3.13c-1.59-.92-3.22-1.78-4.83-2.66l-3.26-1.8Z" transform="translate(-21.75 -16.96)"/><polygon points="66.78 158.33 66.78 166.08 0 166.08 0 158.33 6.05 158.33 6.05 150.59 30.6 150.59 30.6 83.61 36.18 83.61 36.18 150.59 60.73 150.59 60.73 158.33 66.78 158.33"/><path d="M104.49,64.8a6.85,6.85,0,0,1-2-1.53,4,4,0,0,1-.94-1.73,3.64,3.64,0,0,1,.06-1.85,6.11,6.11,0,0,1,.94-1.9l4.77-6.72,2.79,1.51-4.63,6.51a4,4,0,0,0-.62,1.21,2.06,2.06,0,0,0-.07,1,1.64,1.64,0,0,0,.42.8,3.39,3.39,0,0,0,.83.62,3,3,0,0,0,2,.34,3.35,3.35,0,0,0,2-1.51L114.65,55l2.79,1.5-4.78,6.72a6.87,6.87,0,0,1-1.54,1.59,5.1,5.1,0,0,1-1.9.86,5.5,5.5,0,0,1-2.22,0A8.33,8.33,0,0,1,104.49,64.8Z" transform="translate(-21.75 -16.96)"/><path d="M123.83,59.81A8.44,8.44,0,0,1,127.49,63a3.15,3.15,0,0,1-.43,3.49A4,4,0,0,1,125.15,68a5.45,5.45,0,0,1-2.52.18,12.64,12.64,0,0,1,.13,1.35c0,.5,0,1,0,1.53s0,1.06-.07,1.61-.09,1.07-.16,1.58l-3.11-1.68c0-.48,0-1,.07-1.45s0-1,0-1.45,0-.93,0-1.36a10.73,10.73,0,0,0-.12-1.22L118,66.34l-2.8,4-2.79-1.5L120,58.14a21.4,21.4,0,0,1,2,.79C122.73,59.24,123.32,59.54,123.83,59.81ZM122.52,62l-.55-.28-.48-.21-2.09,2.93.79.42a6.13,6.13,0,0,0,2.5.88,1.75,1.75,0,0,0,1.51-.81,1.26,1.26,0,0,0,.11-1.5A4.73,4.73,0,0,0,122.52,62Z" transform="translate(-21.75 -16.96)"/><path d="M134.12,77.58l-1.49,2.09-8.27-4.46L132,64.41l2.79,1.5-6.2,8.72Z" transform="translate(-21.75 -16.96)"/><path d="M56.57,84.32c-.41.6-.83,1.19-1.27,1.77a14.56,14.56,0,0,1-1.51,1.69L43.11,80.63a17.84,17.84,0,0,1,.9-1.81c.35-.64.71-1.21,1.05-1.73a13.44,13.44,0,0,1,1.45-1.83A5.25,5.25,0,0,1,48,74.08a3.25,3.25,0,0,1,1.63-.35,3.46,3.46,0,0,1,1.71.63A2.79,2.79,0,0,1,52.61,77a3.14,3.14,0,0,1,2-.71,3.94,3.94,0,0,1,1.8.65,3.59,3.59,0,0,1,1.76,3A8,8,0,0,1,56.57,84.32ZM48.89,81l.81-1.21A4.1,4.1,0,0,0,50.5,78a1.23,1.23,0,0,0-.62-1.13,1.2,1.2,0,0,0-1.28-.12A4,4,0,0,0,47.33,78l-.45.69c-.15.25-.29.47-.39.68Zm1.89,1.27,2.85,1.9c.14-.16.29-.35.44-.55l.48-.69a5.35,5.35,0,0,0,.89-2,1.42,1.42,0,0,0-.72-1.47,1.38,1.38,0,0,0-1.47-.16,4.06,4.06,0,0,0-1.43,1.42Z" transform="translate(-21.75 -16.96)"/><path d="M52.12,66.53a8.15,8.15,0,0,1,3.43-3.21,3.68,3.68,0,0,1,3.63.51,3.74,3.74,0,0,1,1.52,1.79,4.11,4.11,0,0,1,.11,2.3c.43,0,.9-.06,1.42-.07s1.05,0,1.6,0,1.1.06,1.67.12,1.11.12,1.64.2L65.29,71l-1.51-.12-1.51-.09-1.42,0c-.46,0-.88,0-1.28.07L58.75,72l4,2.69-1.66,2.48L50.25,70a18.21,18.21,0,0,1,.9-1.83C51.5,67.51,51.82,67,52.12,66.53Zm2.22,1.27a4.26,4.26,0,0,0-.31.49c-.09.15-.17.3-.24.43l3,2,.47-.7a5.16,5.16,0,0,0,1-2.24,1.54,1.54,0,0,0-.79-1.4,1.49,1.49,0,0,0-1.57-.16A4.55,4.55,0,0,0,54.34,67.8Z" transform="translate(-21.75 -16.96)"/><path d="M69.52,52.7a8.05,8.05,0,0,1,2.2,2.09,6.18,6.18,0,0,1,1,2.35,5.58,5.58,0,0,1-.08,2.47,7.8,7.8,0,0,1-2.87,4.31,6.07,6.07,0,0,1-2.26,1,6.29,6.29,0,0,1-2.59,0,8.75,8.75,0,0,1-5-3.34,6.35,6.35,0,0,1-1-2.41,5.76,5.76,0,0,1,.07-2.48,7.18,7.18,0,0,1,1-2.34,7.51,7.51,0,0,1,1.79-1.89,5.87,5.87,0,0,1,2.27-1,6.29,6.29,0,0,1,2.59,0A8,8,0,0,1,69.52,52.7Zm-5.63,8.42a6,6,0,0,0,1.6.78,4.15,4.15,0,0,0,1.5.17,3,3,0,0,0,1.34-.43A3.78,3.78,0,0,0,70,59.17a2.93,2.93,0,0,0-.11-1.41,3.93,3.93,0,0,0-.73-1.32,6.66,6.66,0,0,0-2.94-2,4,4,0,0,0-1.51-.18,3,3,0,0,0-1.34.43,3.44,3.44,0,0,0-1.08,1.07,3.16,3.16,0,0,0-.45,2.82,4.1,4.1,0,0,0,.75,1.32A6.09,6.09,0,0,0,63.89,61.12Z" transform="translate(-21.75 -16.96)"/><path d="M80.76,47.83c-.51,0-1.07,0-1.69,0s-1.26.07-1.91.14-1.31.16-2,.28a15.71,15.71,0,0,0-1.8.46l4.67,3.12-1.66,2.49L65.4,47l1.66-2.49,4.14,2.77c-.25-1.08-.51-2.2-.8-3.35s-.57-2.2-.83-3.18l2-3c.4,1.35.75,2.68,1.07,4s.61,2.66.88,4.06a22.5,22.5,0,0,1,4.33-.8,37.63,37.63,0,0,1,4.92-.13Z" transform="translate(-21.75 -16.96)"/><path d="M83.69,43.45l-11-7.37,5-7.45L79.73,30l-3.32,5,2.17,1.45L81.52,32l2,1.36-3,4.41,2.66,1.77,3.56-5.32,2.08,1.39Z" transform="translate(-21.75 -16.96)"/><path d="M95.08,26.42c-1.73-.14-3.49-.2-5.28-.2a47.75,47.75,0,0,0-5.25.31l7.22,4.83-1.63,2.45-11-7.37,1.35-2c.58-.12,1.27-.21,2.06-.3s1.63-.15,2.5-.2,1.76-.1,2.67-.11,1.78,0,2.61,0l-6.5-4.35L85.45,17l11,7.37Z" transform="translate(-21.75 -16.96)"/></svg>