<svg id="Layer_1" data-name="Layer 1" xmlns="http://www.w3.org/2000/svg" viewBox="0 0 383.28 383.36"><title>loadingSvg</title><path d="M180.44,384c-7.27-1-14.58-1.73-21.79-3a188.14,188.14,0,0,1-80.36-34.38,7,7,0,0,0-7-1.19A22.07,22.07,0,0,1,45.9,335.06a22.42,22.42,0,0,1,30.69-30.57,21.86,21.86,0,0,1,10.23,25.37c-1,3.19-.14,4.58,2.32,6.29,36.32,25.36,76.58,36.49,120.6,31.88,74-7.74,134.06-59.47,152.9-131.42C373.19,196.35,369.49,157,352.42,119c-.45-1-1-2-1.4-3-1.79-4.36-.49-8.4,3.27-10.24a7.12,7.12,0,0,1,9.67,2.81,7.4,7.4,0,0,1,.52,1.19c4.76,12.55,10.29,25,13.41,38,21.65,89.76-23.41,181.13-107.62,219.4a186.92,186.92,0,0,1-63.75,16.32,21.57,21.57,0,0,0-2.87.62Z" transform="translate(0 -0.74)"/><path d="M0,180.38c1-7.14,1.71-14.33,3-21.42C10.86,115.32,31.51,78.7,64.51,49.19,93.46,23.3,127.37,7.51,165.87,2.51,216-4,261.93,7.48,303.25,36.75a10.06,10.06,0,0,0,8.16,2c12.55-2,23.75,7.14,25.21,20.26,1.3,11.74-8.26,23.2-20.1,24.1-13.15,1-24.33-8.39-24.5-21-.06-4.23,1.23-8.48,2.07-13.78C289,45.09,283,41,276.75,37.57,178.77-16.26,55.8,33.4,22.9,140.24,10.08,181.88,12.54,222.91,29.74,263a23.27,23.27,0,0,1,1.58,4.19,7.32,7.32,0,0,1-5.06,8.49,7,7,0,0,1-9-4.05C14.55,265.36,12,259,9.74,252.54A178.18,178.18,0,0,1,.63,207.6,25.7,25.7,0,0,0,0,204.34Z" transform="translate(0 -0.74)"/><path d="M49.42,192.19A142.1,142.1,0,0,1,191.58,50.13h.35c78.38.2,142.07,64,142,142.33S269.74,334.84,191.35,334.59,49.28,270.43,49.42,192.19ZM184,155.09H134.56a249.53,249.53,0,0,0,0,74.52H184Zm64.79,74.59a249.33,249.33,0,0,0,0-74.49H199.47v74.49ZM69.93,229.5h49.4a279.49,279.49,0,0,1,0-74.56c-16.25,0-31.93,0-47.61.11-.82,0-2.08,1.5-2.37,2.52A126.16,126.16,0,0,0,69.93,229.5Zm243.45.1a127.15,127.15,0,0,0,0-74.46H264a277.91,277.91,0,0,1,0,74.46ZM184,65.5c-4.47,2.62-8.78,4.39-12.18,7.25-20.72,17.45-28,41.87-34.67,67H184Zm62,74.36a165.71,165.71,0,0,0-14-40.77c-5.2-10.18-11.41-19.67-20.69-26.62-3.48-2.6-7.54-4.42-11.74-6.84v74.23ZM184.09,245H137.64c2.14,17.29,14.13,45,25,58,4.85,5.79,10.3,10.85,17.29,14,1.26.56,2.64.87,4.2,1.38ZM246,245H199.36v73.37c7.89-2.2,13.8-6.85,18.88-12.57C233.61,288.5,240.61,267.33,246,245Zm61.65-105.18c-16-33.1-40.7-55.55-74.83-67.57,15.38,20.09,23.25,43.29,28.6,67.57Zm-185.78,0c5.3-24.3,13.26-47.47,29.17-67.82-30.15,8.37-71.1,45.84-74.61,67.82ZM307.18,245H262.23c-3.92,12.14-7.35,24-11.58,35.52a115.77,115.77,0,0,1-18.48,32.25C265.63,302.23,295,274.43,307.18,245ZM75.71,245c15.93,33,40.64,55.42,74.79,67.49-15.38-20.07-23.26-43.24-28.58-67.49Z" transform="translate(0 -0.74)"/></svg>